<svg xmlns="http://www.w3.org/2000/svg" width="960" height="540" viewBox="0 0 960 540" role="img" aria-label="Mock intro background">
  <rect width="960" height="540" fill="#bfdbfe"/>
  <circle cx="810" cy="88" r="54" fill="#fde68a"/>
  <path d="M0 390 C160 330 310 430 485 360 C670 285 790 365 960 315 L960 540 L0 540 Z" fill="#86efac"/>
  <path d="M0 430 C180 385 345 470 520 405 C700 338 805 425 960 370 L960 540 L0 540 Z" fill="#4ade80"/>
  <path d="M145 270 C190 190 246 190 296 270 Z" fill="#a7f3d0"/>
  <path d="M675 255 C720 170 792 170 846 255 Z" fill="#a7f3d0"/>
  <rect x="70" y="104" width="170" height="62" rx="31" fill="#eff6ff" opacity="0.86"/>
  <rect x="360" y="80" width="220" height="66" rx="33" fill="#eff6ff" opacity="0.78"/>
  <text x="44" y="500" fill="#166534" font-family="Arial, sans-serif" font-size="24" font-weight="700">Intro scene mock background</text>
</svg>
