<svg xmlns="http://www.w3.org/2000/svg" width="960" height="640" viewBox="0 0 960 640" role="img" aria-label="Mock pig house atlas">
  <rect width="960" height="640" fill="#f8fafc"/>
  <rect x="38" y="38" width="884" height="230" rx="24" fill="#dbeafe" stroke="#2563eb" stroke-width="4"/>
  <rect x="38" y="38" width="884" height="230" rx="24" fill="url(#sky)"/>
  <circle cx="805" cy="88" r="38" fill="#fde68a"/>
  <rect x="38" y="205" width="884" height="63" fill="#86efac"/>
  <path d="M170 205 L275 118 L380 205 Z" fill="#f97316"/>
  <rect x="198" y="205" width="154" height="63" fill="#fef3c7"/>
  <rect x="255" y="223" width="38" height="45" fill="#92400e"/>
  <text x="58" y="76" fill="#1e3a8a" font-family="Arial, sans-serif" font-size="24" font-weight="700">background region</text>
  <rect x="650" y="64" width="242" height="166" rx="18" fill="#fff7ed" stroke="#d97706" stroke-width="3" stroke-dasharray="10 8"/>
  <text x="680" y="118" fill="#9a3412" font-family="Arial, sans-serif" font-size="20" font-weight="700">preview only</text>
  <text x="675" y="152" fill="#9a3412" font-family="Arial, sans-serif" font-size="15">composition guide</text>
  <g transform="translate(78 333)">
    <rect width="174" height="178" rx="18" fill="#eff6ff" stroke="#2563eb" stroke-width="3"/>
    <use href="#pig-body" transform="translate(38 46)"/>
    <line x1="104" y1="70" x2="148" y2="42" stroke="#78350f" stroke-width="12" stroke-linecap="round"/>
    <rect x="138" y="28" width="40" height="18" rx="5" fill="#64748b"/>
    <text x="18" y="160" fill="#1e3a8a" font-family="Arial, sans-serif" font-size="16" font-weight="700">frame 0</text>
  </g>
  <g transform="translate(280 333)">
    <rect width="174" height="178" rx="18" fill="#eff6ff" stroke="#2563eb" stroke-width="3"/>
    <use href="#pig-body" transform="translate(38 46)"/>
    <line x1="102" y1="62" x2="130" y2="112" stroke="#78350f" stroke-width="12" stroke-linecap="round"/>
    <rect x="116" y="108" width="42" height="18" rx="5" fill="#64748b" transform="rotate(-18 137 117)"/>
    <text x="18" y="160" fill="#1e3a8a" font-family="Arial, sans-serif" font-size="16" font-weight="700">frame 1</text>
  </g>
  <g transform="translate(482 333)">
    <rect width="174" height="178" rx="18" fill="#eff6ff" stroke="#2563eb" stroke-width="3"/>
    <use href="#pig-body" transform="translate(38 46)"/>
    <line x1="96" y1="72" x2="48" y2="48" stroke="#78350f" stroke-width="12" stroke-linecap="round"/>
    <rect x="20" y="34" width="42" height="18" rx="5" fill="#64748b" transform="rotate(12 41 43)"/>
    <text x="18" y="160" fill="#1e3a8a" font-family="Arial, sans-serif" font-size="16" font-weight="700">frame 2</text>
  </g>
  <g transform="translate(684 333)">
    <rect width="174" height="178" rx="18" fill="#eff6ff" stroke="#2563eb" stroke-width="3"/>
    <use href="#pig-body" transform="translate(38 46)"/>
    <line x1="104" y1="68" x2="150" y2="88" stroke="#78350f" stroke-width="12" stroke-linecap="round"/>
    <rect x="142" y="78" width="42" height="18" rx="5" fill="#64748b" transform="rotate(20 163 87)"/>
    <text x="18" y="160" fill="#1e3a8a" font-family="Arial, sans-serif" font-size="16" font-weight="700">frame 3</text>
  </g>
  <text x="42" y="596" fill="#475569" font-family="Arial, sans-serif" font-size="18">Mock atlas: draw normalized regions; preview_only is not imported by runtime preview.</text>
  <defs>
    <linearGradient id="sky" x1="0" x2="0" y1="0" y2="1">
      <stop offset="0" stop-color="#bfdbfe"/>
      <stop offset="1" stop-color="#eff6ff"/>
    </linearGradient>
    <g id="pig-body">
      <ellipse cx="54" cy="64" rx="48" ry="40" fill="#111827"/>
      <circle cx="53" cy="30" r="34" fill="#1f2937"/>
      <circle cx="30" cy="2" r="12" fill="#1f2937"/>
      <circle cx="76" cy="2" r="12" fill="#1f2937"/>
      <ellipse cx="53" cy="34" rx="18" ry="12" fill="#374151"/>
      <circle cx="45" cy="24" r="4" fill="#f8fafc"/>
      <circle cx="62" cy="24" r="4" fill="#f8fafc"/>
      <circle cx="48" cy="34" r="3" fill="#111827"/>
      <circle cx="58" cy="34" r="3" fill="#111827"/>
      <rect x="18" y="92" width="14" height="34" rx="7" fill="#111827"/>
      <rect x="75" y="92" width="14" height="34" rx="7" fill="#111827"/>
    </g>
  </defs>
</svg>
